<?xml version="1.0" encoding="UTF-8" standalone="no"?>
<!-- Created with Inkscape (http://www.inkscape.org/) -->

<svg
   xmlns:dc="http://purl.org/dc/elements/1.1/"
   xmlns:cc="http://creativecommons.org/ns#"
   xmlns:rdf="http://www.w3.org/1999/02/22-rdf-syntax-ns#"
   xmlns:svg="http://www.w3.org/2000/svg"
   xmlns="http://www.w3.org/2000/svg"
   xmlns:inkscape="http://www.inkscape.org/namespaces/inkscape"
   version="1.1"
   width="640"
   height="640"
   id="svg3612">
  <defs
     id="defs3614">
    <inkscape:path-effect
       effect="spiro"
       id="path-effect5784" />
    <inkscape:path-effect
       effect="spiro"
       id="path-effect5788" />
  </defs>
  <metadata
     id="metadata3617">
    <rdf:RDF>
      <cc:Work
         rdf:about="">
        <dc:format>image/svg+xml</dc:format>
        <dc:type
           rdf:resource="http://purl.org/dc/dcmitype/StillImage" />
        <dc:title></dc:title>
      </cc:Work>
    </rdf:RDF>
  </metadata>
  <g
     transform="translate(0,-412.36218)"
     id="layer1">
    <path
       d="m 424.8121,866.75489 c 7.9765,-2.72507 11.69676,-6.68394 13.393,-14.25197 1.35989,-6.06778 5.8079,-12.02353 10.56664,-14.1484 4.52003,-2.01823 10.26315,-7.4143 12.76258,-11.99119 2.49951,-4.57689 7.10463,-9.19342 10.23371,-10.25891 22.68789,-7.72577 41.4281,-41.49616 32.30154,-58.20824 -2.14712,-3.93171 -3.00933,-9.43312 -1.91596,-12.22536 3.71606,-9.49018 -21.74579,-3.78161 -30.21919,6.77522 -8.79169,10.95335 -20.90344,12.09384 -34.65545,3.26338 -6.36404,-4.08651 -17.38172,-6.26167 -33.30429,-6.57497 -21.09785,-0.41514 -25.93079,-1.90863 -42.65196,-13.1808 -10.37191,-6.99196 -21.03619,-12.71268 -23.69827,-12.71268 -2.662,0 -6.72515,-3.55066 -9.02907,-7.89036 -2.30393,-4.33969 -4.63628,-8.411 -5.183,-9.04729 -0.54673,-0.63633 -5.08054,1.46718 -10.07527,4.67436 -5.58016,3.58316 -12.00961,4.92041 -16.67694,3.46864 -4.17777,-1.29939 -12.13107,-0.52158 -17.67416,1.72854 -13.66473,5.5469 -16.29598,19.83976 -7.24876,39.37497 8.40271,18.14355 8.93043,28.48248 1.75191,34.32099 -6.27287,5.10195 -7.15291,14.02733 -1.38301,14.02733 2.6075,0 3.14597,3.93879 1.55804,11.39723 -6.14939,28.88388 -6.20638,40.05382 -0.23428,45.90642 8.32352,8.1571 17.45039,7.25503 29.82297,-2.94769 12.54076,-10.34137 14.1698,-10.56038 22.64413,-3.04466 5.96689,5.29203 7.12247,5.29203 15.36393,0 11.84633,-7.60677 14.70524,-7.28665 28.7616,3.22021 7.47143,5.58482 12.83568,7.55998 14.28596,5.26025 3.44386,-5.46076 18.25647,-4.46075 23.37033,1.57785 5.30344,6.26248 3.59031,6.11378 17.13327,1.48713 z"
       id="ProvOurense"
       style="fill:#ffffff;fill-opacity:1;stroke:#000000;stroke-width:3.57395363;stroke-miterlimit:4;stroke-opacity:1;stroke-dashoffset:0" />
    <path
       d="m 182.11153,820.93642 c 0.25296,-4.42125 29.17441,-13.53774 44.03645,-13.88098 23.68659,-0.54704 31.04894,-3.92526 39.26509,-18.01672 l 7.64156,-13.10601 -7.79875,-18.4555 c -6.39947,-15.14398 -7.16109,-20.71504 -4.24472,-31.04837 2.91753,-10.33715 6.04785,-13.39943 17.47523,-17.09545 7.65665,-2.47634 15.73243,-3.40543 17.94619,-2.06464 2.21377,1.34084 9.77015,-1.0418 16.79186,-5.29473 11.7916,-7.14188 12.59736,-8.70116 10.54757,-20.41077 -6.36848,-36.3803 -5.1633,-35.14999 -26.05444,-26.59565 -7.21317,2.95362 -15.31487,4.54282 -18.00374,3.53168 -2.68886,-1.0112 -9.53765,0.51742 -15.21957,3.39692 -5.682,2.87949 -16.44936,5.24813 -23.92749,5.26362 -11.6569,0.0234 -15.63869,2.31532 -27.9102,16.05952 -7.87241,8.8172 -18.6277,18.25567 -23.90055,20.97433 -12.22745,6.3045 -16.67889,18.74049 -8.74349,24.42696 8.62429,6.1801 7.17019,10.778 -6.68335,21.13333 -13.50356,10.09368 -13.60617,16.84034 -0.20593,13.54433 16.02619,-3.94191 14.64925,6.05957 -2.82418,20.5136 -14.94699,12.36411 -16.6859,15.32769 -16.6859,28.43801 0,8.04953 2.62401,18.30687 5.8311,22.79413 l 5.8311,8.15857 8.35381,-10.00843 c 4.59454,-5.50464 8.41165,-11.02065 8.48243,-12.25775 z"
       id="ProvPontevedra"
       style="fill:#ffffff;fill-opacity:1;stroke:#000000;stroke-width:3.57395363;stroke-miterlimit:4;stroke-opacity:1;stroke-dashoffset:0" />
    <path
       d="m 466.66102,746.61892 c 4.3443,-6.4976 4.67341,-10.42727 1.59759,-19.07422 -3.44285,-9.67858 -2.26305,-14.13421 10.60098,-40.03542 7.96124,-16.0296 16.45138,-31.78382 18.86711,-35.00935 6.22429,-8.31103 -1.6225,-25.19154 -10.45779,-22.49742 -8.51887,2.59761 -16.69274,-3.04308 -14.0798,-9.71622 1.17832,-3.00916 7.44909,-6.81878 13.93498,-8.46582 6.55246,-1.66396 12.30913,-5.62325 12.95497,-8.91008 0.91142,-4.63744 -1.53686,-5.91544 -11.33238,-5.91544 -10.40517,0 -13.78144,-2.04014 -20.18769,-12.19829 -7.64848,-12.12817 -8.94071,-24.40322 -6.46845,-61.44523 0.99473,-14.90458 0.50686,-15.84237 -8.78647,-16.89031 -6.14004,-0.69236 -13.31203,-5.57093 -19.07484,-12.97531 -8.5142,-10.93959 -43.10425,-33.25742 -51.54502,-33.25742 -1.99787,0 -3.63259,8.1018 -3.63259,18.00403 0,27.93692 -6.07511,43.31448 -19.61098,49.64022 -14.6196,6.8322 -21.15859,28.44909 -17.69114,58.48448 2.00955,17.40649 0.98975,23.18883 -7.27094,41.22804 -9.03149,19.72226 -9.36808,22.28023 -5.60749,42.60405 2.20046,11.89211 3.01541,23.18455 1.81093,25.09435 -4.45229,7.06 2.91193,18.22939 15.38697,23.33758 7.06571,2.89321 18.2247,9.2803 24.79771,14.19352 9.85805,7.36872 16.24973,9.03365 36.49799,9.50712 16.16377,0.37791 27.43597,2.5443 33.00631,6.34335 11.87141,8.09669 19.92779,7.46964 26.29004,-2.04621 z"
       id="ProvLugo"
       style="fill:#ffffff;fill-opacity:1;stroke:#000000;stroke-width:3.57395363;stroke-miterlimit:4;stroke-opacity:1;stroke-dashoffset:0" />
    <path
       d="m 170.29868,687.81968 c 8.35513,-5.0605 15.07577,-6.65016 21.46815,-5.07782 7.62723,1.876 11.40503,0.0424 20.94774,-10.16755 9.76742,-10.45031 14.0425,-12.45636 26.54565,-12.45636 8.19677,0 19.55204,-2.35591 25.23404,-5.2354 5.68192,-2.87951 12.44561,-4.45025 15.03045,-3.49056 2.58477,0.9597 12.75098,-1.18726 22.59158,-4.77099 14.70002,-5.35345 19.37055,-9.26649 26.17987,-21.93403 7.10472,-13.21686 7.98421,-18.67246 6.16052,-38.21252 -2.94969,-31.60382 4.88955,-57.17343 19.32508,-63.03325 12.30344,-4.99437 18.11313,-18.44739 18.11313,-41.94362 0,-12.96033 -1.27066,-16.35897 -6.2622,-16.75011 -3.44425,-0.26988 -8.67763,-0.85663 -11.62981,-1.30389 -15.75415,-2.38685 -28.25434,0.63 -30.42871,7.34379 -1.25618,3.87866 -7.40323,9.61574 -13.66014,12.74905 -6.25691,3.13327 -12.66385,7.85017 -14.23777,10.48202 -1.57384,2.63183 -5.19693,4.78514 -8.0514,4.78514 -6.71184,0 -6.60689,10.92869 0.25958,27.03408 4.3552,10.21506 4.53482,13.35032 0.8946,15.61444 -6.02839,3.74944 -12.61301,3.67842 -15.03497,-0.16201 -2.16339,-3.43049 -18.20142,-2.67401 -28.0312,1.32213 -8.61004,3.50027 -45.6064,3.76027 -55.05514,0.38692 -6.01843,-2.14869 -10.76877,-0.0131 -21.90401,9.84532 -10.96014,9.70389 -17.27591,12.58908 -27.55766,12.58908 -18.7687,0 -34.9243,16.80796 -33.38931,34.73751 0.93236,10.89036 2.50278,12.81285 11.73297,14.3635 10.29515,1.72959 12.22161,4.58293 18.34663,27.17263 0.6537,2.41097 6.12042,4.38354 12.14827,4.38354 16.18043,0 17.48433,8.73406 3.42603,22.94853 -11.56215,11.69056 -11.68376,12.1288 -5.2864,19.05645 8.02976,8.69534 7.29719,8.70449 22.12427,-0.27591 z"
       id="ProvCoruna"
       style="fill:#ffffff;fill-opacity:1;stroke:#000000;stroke-width:3.57395363;stroke-miterlimit:4;stroke-opacity:1;stroke-dashoffset:0" />
    <path
       d="m 351.6857,575.401 a 13.474547,13.474547 0 1 1 -26.9491,0 13.474547,13.474547 0 1 1 26.9491,0 z"
       transform="matrix(0.67695969,0,0,0.66342316,72.356138,300.13128)"
       id="path4728"
       style="fill:#7d957d;fill-opacity:1;stroke:none" />
    <path
       d="m 359.20348,575.05005 a 20.961475,20.961475 0 1 1 -41.92295,0 20.961475,20.961475 0 1 1 41.92295,0 z"
       transform="matrix(0.67695969,0,0,0.66342316,72.356138,300.13128)"
       id="lalin"
       style="fill:none;stroke:#7d957d;stroke-width:2;stroke-linecap:round;stroke-linejoin:miter;stroke-miterlimit:4;stroke-opacity:1;stroke-dasharray:none" />
    <path
       d="m 351.6857,575.401 a 13.474547,13.474547 0 1 1 -26.9491,0 13.474547,13.474547 0 1 1 26.9491,0 z"
       transform="matrix(1.0154395,0,0,0.99513472,-151.64708,216.90633)"
       id="vigo"
       style="fill:#97e2ff;fill-opacity:1;stroke:none" />
    <path
       d="m 351.6857,575.401 a 13.474547,13.474547 0 1 1 -26.9491,0 13.474547,13.474547 0 1 1 26.9491,0 z"
       transform="matrix(0.67695969,0,0,0.66342316,-29.872026,365.75865)"
       id="pontevedra"
       style="fill:#fcab1c;fill-opacity:1;stroke:none" />
    <path
       d="m 351.6857,575.401 a 13.474547,13.474547 0 1 1 -26.9491,0 13.474547,13.474547 0 1 1 26.9491,0 z"
       transform="matrix(0.67695969,0,0,0.66342316,48.574803,245.97167)"
       id="santiago"
       style="fill:#b1d0db;fill-opacity:1;stroke:none" />
    <path
       d="m 351.6857,575.401 a 13.474547,13.474547 0 1 1 -26.9491,0 13.474547,13.474547 0 1 1 26.9491,0 z"
       transform="matrix(0.67695969,0,0,0.66342316,180.83982,223.62335)"
       id="lugo"
       style="fill:#fc4e73;fill-opacity:1;stroke:none" />
    <path
       d="m 351.6857,575.401 a 13.474547,13.474547 0 1 1 -26.9491,0 13.474547,13.474547 0 1 1 26.9491,0 z"
       transform="matrix(1.0154395,0,0,0.99513472,-79.585429,-9.2586441)"
       id="coruna"
       style="fill:#ff4f16;fill-opacity:1;stroke:none" />
    <path
       d="m 351.6857,575.401 a 13.474547,13.474547 0 1 1 -26.9491,0 13.474547,13.474547 0 1 1 26.9491,0 z"
       transform="matrix(0.74465566,0,0,0.72976548,51.220109,96.056659)"
       id="ferrol"
       style="fill:#fcab1c;fill-opacity:1;stroke:none" />
    <path
       d="m 351.6857,575.401 a 13.474547,13.474547 0 1 1 -26.9491,0 13.474547,13.474547 0 1 1 26.9491,0 z"
       transform="matrix(0.67695969,0,0,0.66342316,112.42689,404.19775)"
       id="ourense"
       style="fill:#a6e8ff;fill-opacity:1;stroke:none" />
    <path
       d="m 351.6857,575.401 a 13.474547,13.474547 0 1 1 -26.9491,0 13.474547,13.474547 0 1 1 26.9491,0 z"
       transform="matrix(1.0154395,0,0,0.99513472,-93.291799,372.82104)"
       id="braga"
       style="fill:#b92167;fill-opacity:1;stroke:none" />
    <path
       d="m 157.49657,979.98682 c -1.88338,-0.26984 -3.65118,-1.26782 -4.86234,-2.73513 -1.21117,-1.46731 -1.85023,-3.37979 -1.83532,-5.28234 0.0149,-1.90255 0.66758,-3.76715 1.67972,-5.3782 1.01215,-1.61105 2.36908,-2.97171 3.72794,-4.3034 l 6.45003,-6.32106 c 0.85623,-0.83911 1.70134,-1.70644 2.32628,-2.72953 0.62493,-1.02308 1.0199,-2.18244 1.1695,-3.37192 0.14959,-1.18948 0.0623,-2.39536 -0.0658,-3.58735 -0.12812,-1.19198 -0.29128,-2.38965 -0.20492,-3.58539 0.10676,-1.47826 0.59708,-2.90482 1.21303,-4.25286 0.61596,-1.34805 1.35964,-2.63371 2.01201,-3.96452 2.64153,-5.38867 3.73594,-11.42752 3.99553,-17.42319 0.25958,-5.99567 -0.28568,-11.99309 -0.77051,-17.97476 -0.32396,-3.99697 -0.62133,-7.99998 -0.64502,-12.00999 -0.0124,-2.10706 0.0507,-4.21457 0,-6.32106 -0.22245,-9.24376 -2.67642,-18.42611 -7.09503,-26.54845 l 0.9675,-4.10869"
       id="path5782"
       style="fill:none;stroke:#000000;stroke-width:4.02094364;stroke-linecap:round;stroke-linejoin:miter;stroke-miterlimit:4;stroke-opacity:1;stroke-dasharray:none" />
    <path
       d="m 466.4532,508.43579 c 12.79125,4.70098 27.68743,3.26507 39.3452,-3.79266 3.70467,-2.24285 7.0925,-5.01455 10.96506,-6.95316 4.42207,-2.21369 9.41408,-3.27669 14.35439,-3.05662 4.94031,0.22006 9.81804,1.72272 14.02576,4.32083"
       id="path5786"
       style="fill:none;stroke:#000000;stroke-width:4.02094364;stroke-linecap:round;stroke-linejoin:miter;stroke-miterlimit:4;stroke-opacity:1;stroke-dasharray:none" />
  </g>
</svg>
